<svg xmlns="http://www.w3.org/2000/svg" viewBox="0 0 400 400" width="400" height="400">
  <!-- Square frame -->
  <rect x="50" y="50" width="300" height="300" fill="none" stroke="#50C878" stroke-width="8" rx="4"/>
  
  <!-- MC text as paths -->
  <g fill="#50C878">
    <!-- M -->
    <path d="M364 440Q364 417 360 400Q364 384 364 360Q364 337 360 320Q364 304 364 280Q364 257 360 240Q364 224 364 200Q364 177 360 160Q364 144 364 120Q364 97 360 80Q364 64 364 40Q364 17 360 0H280Q276 17 276 40Q276 64 280 80Q276 97 276 120Q276 144 280 160Q276 177 276 200Q276 224 280 240Q276 257 276 280Q276 304 280 320Q276 337 276 360Q276 384 280 400H250Q254 384 254 360Q254 337 250 320Q254 304 254 280Q254 257 250 240H230Q234 224 234 200Q234 177 230 160Q234 144 234 120Q234 97 230 80H170Q166 97 166 120Q166 144 170 160Q166 177 166 200Q166 224 170 240H150Q146 257 146 280Q146 304 150 320Q146 337 146 360Q146 384 150 400H120Q124 384 124 360Q124 337 120 320Q124 304 124 280Q124 257 120 240Q124 224 124 200Q124 177 120 160Q124 144 124 120Q124 97 120 80Q124 64 124 40Q124 17 120 0H40Q36 17 36 40Q36 64 40 80Q36 97 36 120Q36 144 40 160Q36 177 36 200Q36 224 40 240Q36 257 36 280Q36 304 40 320Q36 337 36 360Q36 384 40 400Q36 417 36 440Q36 464 40 480Q36 497 36 520Q36 544 40 560H140Q144 544 144 520Q144 497 140 480H170Q174 464 174 440Q174 417 170 400H185Q189 384 189 360Q189 337 185 320H215Q211 337 211 360Q211 384 215 400H230Q226 417 226 440Q226 464 230 480H260Q256 497 256 520Q256 544 260 560H360Q364 544 364 520Q364 497 360 480Q364 464 364 440Z" transform="translate(123.0, 260) scale(0.18, -0.18)"/>
    <!-- C -->
    <path d="M360 160Q364 144 364 120Q364 97 360 80H320Q324 64 324 40Q324 17 320 0H120Q116 17 116 40Q116 64 120 80H80Q76 97 76 120Q76 144 80 160H40Q36 177 36 200Q36 224 40 240Q36 257 36 280Q36 304 40 320Q36 337 36 360Q36 384 40 400H80Q76 417 76 440Q76 464 80 480H120Q116 497 116 520Q116 544 120 560H320Q324 544 324 520Q324 497 320 480H360Q364 464 364 440Q364 417 360 400H280Q276 417 276 440Q276 464 280 480H160Q164 464 164 440Q164 417 160 400H120Q124 384 124 360Q124 337 120 320Q124 304 124 280Q124 257 120 240Q124 224 124 200Q124 177 120 160H160Q164 144 164 120Q164 97 160 80H280Q276 97 276 120Q276 144 280 160Z" transform="translate(205.0, 260) scale(0.18, -0.18)"/>
  </g>
</svg>